# xmcd CD database file
#
# Track frame offsets:
#	150
#	12625
#	28581
#	38899
#	63642
#	74706
#	90558
#	102997
#	123101
#	134701
#	150456
#	168572
#	182005
#	194283
#
# Disc length: 2746 seconds
#
# Revision: 0
# Processed by: cddbd v1.4PL0 Copyright (c) Steve Scherf et al.
# Submitted via: CDex 1.50beta10
#
DISCID=c70ab80e
DTITLE=Aretha and Othis - Aretha and Othis (Soli)
DYEAR=1900
DGENRE=Blues
TTITLE0=(You me feel like) a natural woman
TTITLE1=I say a little prayer
TTITLE2=Think
TTITLE3=Bridge over troubled water
TTITLE4=Respect
TTITLE5=Let it be
TTITLE6=Chain of fools
TTITLE7=Angel
TTITLE8=Eleanor Rigby
TTITLE9=Spanish Harlem
TTITLE10=Spirit in the dark
TTITLE11=Don't play that song
TTITLE12=I never loved a man (the way I love you)
TTITLE13=The house that Jack built
EXTD=
EXTT0=
EXTT1=
EXTT2=
EXTT3=
EXTT4=
EXTT5=
EXTT6=
EXTT7=
EXTT8=
EXTT9=
EXTT10=
EXTT11=
EXTT12=
EXTT13=
PLAYORDER=
